<svg width="30" height="18" viewBox="0 0 30 18" xmlns="http://www.w3.org/2000/svg">
<path d="M1.36365 10.3637L25.3443 10.3637L20.854 14.854C20.3215 15.3865 20.3215 16.2499 20.854 16.7825C21.3865 17.3149 22.2499 17.3149 22.7825 16.7825L29.6007 9.9643C30.1332 9.43185 30.1332 8.56839 29.6007 8.03585L22.7825 1.21767C22.5161 0.951394 22.1672 0.818214 21.8182 0.818214C21.4692 0.818214 21.1202 0.951394 20.854 1.21767C20.3215 1.75012 20.3215 2.61358 20.854 3.14612L25.3443 7.63639L1.36365 7.63639C0.610562 7.63639 1.60399e-05 8.24694 1.59741e-05 9.00003C1.59082e-05 9.75312 0.610562 10.3637 1.36365 10.3637Z"/>
</svg>
